<svg xmlns="http://www.w3.org/2000/svg" width="512" height="512" viewBox="0 0 512 512">
  <defs>
    <linearGradient id="g" x1="0" x2="1" y1="0" y2="1">
      <stop offset="0" stop-color="#8b5cf6" />
      <stop offset="1" stop-color="#7c3aed" />
    </linearGradient>
  </defs>
  <rect width="100%" height="100%" rx="20" fill="url(#g)" />
  <g transform="translate(80,80) scale(1.1)" fill="#fff">
    <path d="M96 0a96 96 0 1 0 0 192 96 96 0 0 0 0-192zm0 32a64 64 0 1 1 0 128 64 64 0 0 1 0-128z" />
    <circle cx="192" cy="48" r="24" />
    <path d="M192 144a64 64 0 1 1 0 128 64 64 0 0 1 0-128z" />
  </g>
  <text x="50%" y="440" font-family="Poppins, Arial, sans-serif" font-size="56" fill="#fff" font-weight="700" text-anchor="middle">BIMS</text>
  <text x="50%" y="492" font-family="Poppins, Arial, sans-serif" font-size="20" fill="#fff" text-anchor="middle">Trust. Connect. Grow.</text>
</svg>
